<?xml version="1.0" standalone="no"?><!DOCTYPE svg PUBLIC "-//W3C//DTD SVG 1.1//EN" "http://www.w3.org/Graphics/SVG/1.1/DTD/svg11.dtd"><svg t="1688713881223" class="icon" viewBox="0 0 1024 1024" version="1.1" xmlns="http://www.w3.org/2000/svg" p-id="8961" xmlns:xlink="http://www.w3.org/1999/xlink" width="200" height="200"><path d="M930.909091 372.363636H651.636364V93.090909a100.538182 100.538182 0 0 0-93.090909-93.090909H465.454545a100.538182 100.538182 0 0 0-93.090909 93.090909v279.272727H93.090909a100.538182 100.538182 0 0 0-93.090909 93.090909v93.09091a100.538182 100.538182 0 0 0 93.090909 93.090909h279.272727v279.272727a100.538182 100.538182 0 0 0 93.090909 93.090909h93.09091a100.538182 100.538182 0 0 0 93.090909-93.090909V651.636364h279.272727a100.538182 100.538182 0 0 0 93.090909-93.090909V465.454545a93.090909 93.090909 0 0 0-93.090909-93.090909z" p-id="8962" fill="#d81e06"></path></svg>